# xmcd
#
# Track frame offsets:
#	150
#	22084
#	45294
#	66716
#	87863
#	107041
#	131614
#	154047
#	167451
#	195503
#	223850
#	253258
#	283209
#	306971
#	330520
#
# Disc length: 4647 seconds
# Revision: 0
# Processed by: cddbd v1.5.2PL0 Copyright (c) Steve Scherf et al.
# Submitted via: dBpowerAMP V12.0
#
DISCID=db12250f
DTITLE=Greg Phillinganes - Pulse
DYEAR=1985
DGENRE=R&B
TTITLE0=Behind The Mask
TTITLE1=Won't Be Long Now
TTITLE2=Playin' With Fire
TTITLE3=I Have Dreamed
TTITLE4=Come As You Are
TTITLE5=Lazy Ninja
TTITLE6=Signals
TTITLE7=Countdown To Love
TTITLE8=Shake it
TTITLE9=Only You
TTITLE10=Behind The Mask (12" Version)
TTITLE11=Playin' With Fire (12" Version)
TTITLE12=Behind The Mask (Instrumental Version)
TTITLE13=Playin' With Fire (Instrumental Version)
TTITLE14=Behind The Mask (Single Version)
EXTD=
EXTT0=
EXTT1=
EXTT2=
EXTT3=
EXTT4=
EXTT5=
EXTT6=
EXTT7=
EXTT8=
EXTT9=
EXTT10=
EXTT11=
EXTT12=
EXTT13=
EXTT14=
PLAYORDER=
